<?xml version="1.0" encoding="UTF-8"?>
<svg id="Layer_1" data-name="Layer 1" xmlns="http://www.w3.org/2000/svg" viewBox="0 0 70.39 70.39">
  <path d="M67.83,34.47c-2.79.47-5.09.91-8.51,2.69-2.95,1.54-4.61,2.58-5.5,3.19-.11-.17-.22-.34-.34-.5.46-1.11,1.2-3.15,2.24-6.77,1.77-6.2,1.5-10.18,1.03-12.25-.09-.38-.49-.64-.9-.47-1.5.64-3,2.03-7.51,5.91-4.39,3.78-5.26,4.61-5.26,4.61,0,0,.38-2.21-2.13-11.67-1.68-6.33-4.08-9.99-5.26-11.37-.08-.1-.27-.14-.48-.14-.21,0-.39.04-.48.14-1.18,1.38-3.58,5.05-5.26,11.37-2.51,9.46-2.13,11.67-2.13,11.67,0,0-.87-.84-5.26-4.61-4.51-3.88-6.01-5.27-7.51-5.91-.41-.17-.81.09-.9.47-.48,2.08-.74,6.06,1.03,12.25,1.1,3.84,1.86,5.9,2.32,6.96-.09.14-.19.28-.27.42-.85-.6-2.52-1.66-5.65-3.3-3.42-1.79-5.72-2.22-8.51-2.69-.45-.08-.88.15-.84.53.24,2.33,2.35,8.62,7.89,13.91,6.77,6.47,12.43,10.18,12.43,10.18h.14c3.56,2.24,8.13,3.59,13.12,3.59,6.08,0,11.54-2,15.3-5.18,2.26-1.67,6.01-4.6,10.18-8.59,5.54-5.29,7.65-11.57,7.89-13.91.04-.39-.39-.61-.84-.53Z"/>
</svg>