<?xml version="1.0" encoding="UTF-8"?>
<svg id="Layer_1" data-name="Layer 1" xmlns="http://www.w3.org/2000/svg" viewBox="0 0 144 144">
  <g>
    <path d="M28.99,121.95c2.32-3.37,5.8-3.94,7.89-2.5,1.11.76,1.48,1.63,1.68,2.67l.89-1.56,2.29-3.33,3.53,2.43-9.83,14.3-2.88-1.98.4-1.11-.08-.06c-1.18.22-2.5.03-3.41-.59-2.55-1.75-2.78-4.94-.49-8.26ZM34.23,128.15l2.6-3.78c-.16-.65-.61-1.14-1.06-1.45-.74-.51-1.89-.33-3.13,1.48-1.27,1.85-1.18,2.94-.23,3.59.53.37,1.06.49,1.82.16Z"/>
    <path d="M40.7,129.76c1.57-3.72,5.25-4.88,8.05-3.7,3.4,1.43,3.96,4.59,2.67,7.67-.29.69-.67,1.34-.86,1.59l-6.55-2.76c-.21,1.53.6,2.42,1.89,2.96.78.33,1.61.41,2.63.3l.3,2.89c-1.61.35-3.46.11-4.74-.43-3.36-1.41-5-4.7-3.39-8.52ZM48.45,131.4c.37-.87.33-1.81-.87-2.31-.87-.37-1.82-.17-2.54.88l3.4,1.43Z"/>
    <path d="M53.62,136.62l3.01-12.61,4.17,1-3.05,12.76c-.2.82.13,1.16.42,1.23.15.04.24.06.45.06l-.24,3.17c-.48.09-1.2.07-2.12-.15-2.81-.67-3.29-2.74-2.65-5.45Z"/>
    <path d="M62.55,130.27l4.26.49-1.44,12.38-4.26-.5,1.44-12.38ZM62.73,126.58c.14-1.24,1.24-2.01,2.63-1.85,1.39.16,2.27,1.17,2.13,2.41-.14,1.24-1.24,2.02-2.63,1.85-1.39-.16-2.27-1.17-2.13-2.41Z"/>
    <path d="M68.29,131.17l4.28-.22,1.62,5.36c.36,1.23.73,2.51,1.09,3.84h.1c.23-1.37.46-2.68.7-3.94l1.07-5.5,4.08-.21-3.31,12.65-4.93.25-4.71-12.25Z"/>
    <path d="M83.29,136.4c-1.04-3.9,1.16-7.07,4.1-7.85,3.57-.95,5.95,1.2,6.81,4.43.19.72.29,1.47.29,1.78l-6.87,1.83c.77,1.34,1.96,1.54,3.31,1.18.82-.22,1.53-.67,2.26-1.38l2,2.1c-1.06,1.26-2.66,2.21-4.01,2.57-3.52.94-6.83-.66-7.9-4.66ZM90.42,132.95c-.24-.92-.85-1.63-2.1-1.3-.92.24-1.55.98-1.46,2.25l3.57-.95Z"/>
    <path d="M94.52,126.57l3.14-1.53,1.21,1.8.09-.04c.09-1.93,1.02-3.21,2.12-3.75.7-.34,1.12-.43,1.5-.45l.99,3.62c-.45.11-.85.19-1.34.43-.81.39-1.55,1.37-1.42,3.02l3.03,6.24-3.86,1.87-5.45-11.21Z"/>
    <path d="M113.69,135.6l-1.35-3.04c.21-.1.53-.21.73-.36.92-.69,1.05-1.42.8-2.17l-.21-.53-11.01-6.75,3.42-2.58,4.07,2.92c.97.71,1.86,1.47,2.85,2.29l.08-.06c-.52-1.11-1.01-2.17-1.49-3.31l-1.89-4.57,3.26-2.46,4.04,12.32c.99,3.47.83,5.49-1.64,7.35-.68.51-1.14.73-1.66.94Z"/>
  </g>
  <path d="M72.01,40.48c.23,0,.43.04.52.15,1.32,1.54,4.01,5.65,5.89,12.73,2.81,10.59,2.39,13.06,2.39,13.06,0,0,.97-.93,5.89-5.16,5.05-4.34,6.72-5.9,8.41-6.61.1-.04.2-.06.3-.06.34,0,.63.25.71.58.53,2.32.83,6.78-1.15,13.71-1.16,4.05-1.99,6.33-2.5,7.57.13.19.26.37.38.56.99-.69,2.85-1.85,6.15-3.57,3.83-2,6.4-2.49,9.52-3.01.07-.01.13-.02.2-.02.43,0,.78.24.74.61-.7,6.63-5.95,12.83-10.57,17.24-7.49,7.15-15.99,13.72-26.77,13.72-7.93,0-14.17-3.25-20.26-8.04-7.15-5.62-16.29-13.16-17.31-22.93-.04-.37.32-.61.74-.61.06,0,.13,0,.2.02,3.13.53,5.7,1.01,9.52,3.01,3.5,1.83,5.37,3.02,6.32,3.69.1-.16.2-.31.31-.46-.51-1.18-1.37-3.49-2.59-7.79-1.98-6.94-1.68-11.39-1.15-13.71.08-.33.37-.58.71-.58.1,0,.2.02.3.06,1.68.72,3.36,2.28,8.41,6.61,4.92,4.23,5.89,5.16,5.89,5.16,0,0-.42-2.48,2.39-13.06,1.88-7.08,4.57-11.18,5.89-12.73.09-.11.29-.15.52-.15,0,0,0,0,.01,0,0,0,0,0,.01,0M72.01,35.43h0s0,0-.01,0,0,0-.01,0c-1.75,0-3.3.68-4.36,1.92-1.03,1.21-4.57,5.83-6.93,14.71-.43,1.61-.8,3.11-1.12,4.5-.28-.24-.55-.47-.81-.7-4.04-3.49-5.72-4.93-7.9-5.86-.72-.31-1.49-.47-2.27-.47-2.71,0-5.02,1.85-5.63,4.5-.6,2.62-.95,6.92.44,13.17-2.49-.92-4.68-1.35-7.09-1.75-.34-.06-.69-.09-1.03-.09-1.69,0-3.28.69-4.37,1.9-1.05,1.16-1.55,2.72-1.39,4.28,1.29,12.28,12.51,21.1,19.21,26.37,5.4,4.24,12.94,9.12,23.38,9.12,12.71,0,22.43-7.64,30.25-15.12,7.45-7.12,11.41-13.78,12.1-20.36.16-1.56-.34-3.12-1.39-4.28-1.09-1.21-2.68-1.91-4.37-1.91-.35,0-.69.03-1.03.09-2.41.41-4.6.83-7.09,1.75,1.38-6.25,1.04-10.55.44-13.17-.61-2.65-2.92-4.5-5.62-4.5-.78,0-1.55.16-2.27.47-2.19.93-3.86,2.37-7.9,5.86-.26.22-.53.45-.81.7-.32-1.39-.7-2.89-1.12-4.5-2.35-8.87-5.9-13.5-6.93-14.71-1.06-1.24-2.61-1.92-4.36-1.92h0Z"/>
  <path d="M72,24.67c25.46,0,46.17,20.71,46.17,46.17s-20.71,46.17-46.17,46.17-46.17-20.71-46.17-46.17,20.71-46.17,46.17-46.17M72,19.08c-28.59,0-51.76,23.17-51.76,51.76s23.17,51.76,51.76,51.76,51.76-23.17,51.76-51.76-23.17-51.76-51.76-51.76h0Z"/>
  <g>
    <path d="M24.21,29.23c-2.88-2.97-2.3-6.88.24-9.34,1.07-1.04,2.28-1.52,3.51-1.61l.48,3.36c-.71.06-1.1.23-1.42.54-1.15,1.11-.99,2.63.33,3.99s2.91,1.49,3.87.55c.5-.49.76-1.22.87-1.96l3.13.86c-.13,1.66-1.03,3.02-1.96,3.92-2.54,2.47-6.18,2.66-9.06-.31Z"/>
    <path d="M34.99,22.74c-1.37-2.2-.44-4.48,3.35-7.44-.56-.71-1.24-.76-2.17-.18-.76.47-1.38,1.27-2.11,2.55l-2.75-1.58c.93-1.81,2.13-3.27,3.78-4.3,2.75-1.71,5.32-1.26,7.49,2.21l3.67,5.88-2.96,1.85-.89-.86-.08.05c-.37,1.29-.99,2.38-2.13,3.09-1.99,1.24-4.12.45-5.2-1.28ZM40.59,18.9l-.9-1.44c-1.58,1.34-1.78,2.23-1.41,2.82.3.49.81.55,1.45.15.59-.37.75-.88.86-1.54Z"/>
    <path d="M44.7,6.89l3.32-1.09.75,1.33.09-.03c.65-1.21,1.57-2.41,3.18-2.93,2.61-.86,4.32.68,5.28,3.62l2.4,7.3-4.07,1.34-2.22-6.78c-.5-1.52-1-1.77-1.81-1.51-.76.25-1.08.72-1.5,1.49l2.55,7.77-4.07,1.34-3.89-11.84Z"/>
    <path d="M61.44,2.15l3.48-.24.4,1.47h.1c.93-1.02,2.11-1.95,3.81-2.07,2.74-.19,4.02,1.72,4.23,4.81l.53,7.66-4.28.3-.49-7.11c-.11-1.59-.54-1.96-1.38-1.9-.8.05-1.22.43-1.82,1.08l.56,8.16-4.28.3-.86-12.44Z"/>
    <path d="M76.69,10.42c.44-2.56,2.65-3.64,7.45-3.32.05-.9-.42-1.39-1.5-1.57-.88-.15-1.88.03-3.27.5l-1-3.01c1.9-.74,3.77-1.02,5.68-.69,3.19.55,4.82,2.6,4.12,6.63l-1.17,6.83-3.44-.59-.09-1.23-.1-.02c-1.14.72-2.32,1.12-3.64.89-2.31-.4-3.38-2.4-3.03-4.42ZM83.42,11.27l.29-1.67c-2.07-.05-2.81.48-2.93,1.16-.1.57.24.95.98,1.08.69.12,1.14-.16,1.67-.57Z"/>
    <path d="M93.54,16.77l-.09-.04-.86,1.09-3.06-1.34,6.94-15.91,3.93,1.72-1.62,3.7-.81,1.61c1.12-.38,2.3-.35,3.31.08,2.7,1.18,3.46,4.23,1.93,7.73-1.73,3.95-5.03,5.18-7.46,4.12-1.01-.44-1.79-1.38-2.22-2.77ZM99.16,13.73c.82-1.87.61-2.89-.44-3.35-.59-.26-1.15-.23-1.91.14l-1.84,4.2c.28.61.72.97,1.22,1.19.91.4,2.01,0,2.97-2.19Z"/>
    <path d="M109.34,12.4l3.55,2.41-7.01,10.31-3.55-2.41,7-10.31ZM111.21,9.21c.7-1.03,2.03-1.21,3.18-.43,1.16.78,1.48,2.09.77,3.12-.7,1.03-2.03,1.21-3.18.43-1.15-.78-1.48-2.09-.78-3.12Z"/>
    <path d="M108.41,24.99l3.19-.63c.26,1.4.73,2.39,1.36,2.99.65.61,1.08.67,1.42.31.44-.47-.19-1.48-.76-2.69-.66-1.41-1.16-3.35.24-4.84,1.67-1.78,4.22-1.58,6.36.44,1.49,1.4,1.98,2.99,2.22,4.34l-3.12.56c-.21-1.09-.57-1.98-1.14-2.51-.53-.49-.94-.61-1.28-.24-.44.47.18,1.4.79,2.59.71,1.42,1.3,3.28-.23,4.91-1.6,1.71-4.18,1.75-6.72-.64-1.16-1.09-2.1-2.93-2.33-4.58Z"/>
  </g>
</svg>