<?xml version="1.0" encoding="UTF-8"?>
<svg id="Layer_1" data-name="Layer 1" xmlns="http://www.w3.org/2000/svg" viewBox="0 0 29.78 21.7">
  <g>
    <path d="M14.56,10.08l1.4-2.97c.04-.66,1.31-1.22,1.37-1.3.09-.12-1.29-1.28-.21-2.87,1.19-1.77,3.48-.8,4.15.97.35.93-.12.43-.62.85l-1.39,1.58c.74.95,2.03,2.35,3.33,2.4.82.03.54-.19,1.68.04.81.17,2.2.09,1.76,1.57-.19.65-1.11.64-1,1.07.49,2.03,2.2,1.71,3.26,3.15.61.82.9,1.85.77,2.87-.09.78-1.33.34-1.69.56s-.24,1.63-2.06,1.69c-2,.06-2.1-1.67-2.38-1.73h-8.25c-.47,1.43-1.9,2.28-3.32,1.38-.51-.32-.84-1.13-1.08-1.27-.54-.32-1.32.24-1.49-.64-.38-1.94.98-2.89,1.49-4.58-1.37.17-.84-.53-1.12-1.12-.15-.31-.47-.49-.54-.73-.14-.44-.11-4.61.06-4.96.46-.94,5.86-1.07,5.86.32v3.73ZM20.1,3.89c.14-.67-.4-.99-.98-1.06-2.44-.3-1.61,3.15-.51,2.55.13-.07-.85-2.11,1.49-1.49ZM13.7,6.24h-4.26l1.39.31,2.88-.31ZM19.46,7.94c.18-.2-1.04-1.93-2.13-1.39-.54.27-1.93,3.17-1.93,3.85,0,1.2,2.52.86,3.4,1.4l.24,4.02c.34.05.24-.38.29-.61.16-.76.52-3.35.32-3.94-.15-.43-1.87-.53-2.44-.75-.24-.09-.33.11-.31-.35.01-.28,1.2-2.55,1.33-2.62.54-.32,1.18.46,1.24.39ZM13.7,7.31h-4.26v3.62h4.26v-3.62ZM19.31,9.16c-.13-.1-.5-.93-.7-.79l-.64,1.38c.11.56,2.56-.02,2.58,1.92,0,.71-.57,2.93-.43,3.38.06.18,1.01,1.01,1.32.96,1.81-.26,2.22-4.02,1.65-5.37-.09-.21-3.21-1.06-3.77-1.5ZM28.2,17.11c.13-1.18-.33-2.2-1.34-2.81-.46-.28-1.35-.42-1.64-.7-.38-.36-.87-2.08-1.07-2.66-.4-.04-.17.45-.15.68.58,6.32-5.77,7.06-7.78,2.24-.15-.35-.12-1-.17-1h-4.79s-.39.37-.32.42c2.99-.89,5.33.78,5.54,3.84h11.72ZM9.87,11.99h5.54c-.32-.75-1.29-.21-1.79-.23-1.09-.04-1.91-.22-3.11-.09-.27.03-.54-.16-.64.33ZM18.15,12.45c-.3-.47-1.3-.28-1.37.5-.05.57.8,1.99,1.4,2.24-.12-.56.18-2.41-.03-2.74ZM9.44,17.11h6.18c-.02-4.34-6.05-4.37-6.18,0ZM13.92,17.96l-2.77.1c.91,1.15,2.01,1.22,2.77-.1ZM26.49,17.96c-.67.03-1.36-.05-2.03,0-.23.02-.71-.12-.53.32.38.93,2.51.9,2.55-.32Z"/>
    <path d="M.7,7.52c.03-.17-.05-.57,0-.63.23-.29,6.65-.37,7.12-.02.25.18.1.42.13.66H.7Z"/>
    <rect x="2.84" y="8.16" width="5.11" height=".64"/>
  </g>
  <rect x="4.33" y="9.44" width="3.62" height=".64"/>
</svg>