<?xml version="1.0" encoding="UTF-8"?>
<svg id="Layer_1" data-name="Layer 1" xmlns="http://www.w3.org/2000/svg" viewBox="0 0 69.33 14.46">
  <path d="M6.15,9.31c0,1.33-.48,1.91-1.48,1.91-.67.02-1.29-.36-1.57-.97l-.44.29c.36.76,1.14,1.23,1.98,1.21,1.48,0,2.03-1.05,2.03-2.37V3.42h-.52v5.89Z"/>
  <path d="M12.77,10.04c-.7.85-1.21,1.22-1.92,1.22-.96,0-1.36-.61-1.36-1.87v-3.74h-.54v3.82c0,1.54.56,2.29,1.82,2.29.82-.05,1.57-.47,2.03-1.15l.06,1h.46v-5.95h-.54v4.39Z"/>
  <path d="M17.11,8.23c-.71-.27-1.41-.67-1.41-1.2s.43-1.06,1.35-1.06c.52.01,1.03.2,1.42.54l.3-.39c-.48-.39-1.08-.61-1.7-.62-1.24,0-1.92.57-1.92,1.58s1,1.38,1.89,1.7c.69.26,1.47.69,1.47,1.32s-.49,1.18-1.42,1.18c-.7,0-1.38-.27-1.89-.75l-.32.4c.61.51,1.38.79,2.18.8.05,0,.1.01.16.01.98.04,1.81-.71,1.85-1.69,0-1.16-1.02-1.47-1.95-1.82Z"/>
  <path d="M22.14,11.31c-.87,0-1.06-.51-1.06-1.28v-3.87h1.69v-.48h-1.72v-1.73h-.47l-.07,1.73h-.94v.44h.92v3.83c0,1.07.37,1.8,1.56,1.84.33-.03.66-.1.98-.22l-.15-.45c-.23.11-.49.17-.74.19Z"/>
  <path d="M30.43,7.19c.78-.22,1.31-.96,1.25-1.78,0-1.37-1.05-1.99-2.69-1.99h-2.19v8.18h2.34c1.85,0,3.04-.81,3.04-2.38.07-1.04-.71-1.95-1.75-2.03ZM27.38,3.9h1.48c1.5,0,2.29.41,2.29,1.56,0,.97-.68,1.55-2.36,1.55h-1.4v-3.12ZM29.03,11.12h-1.65v-3.64h1.65c1.67,0,2.63.44,2.63,1.74s-1,1.89-2.63,1.89Z"/>
  <path d="M34.44,6.71l-.05-1.06h-.47l-.03,5.91h.55v-4.05c.45-1.13,1.08-1.53,1.63-1.53.18,0,.36.03.53.1l.13-.5c-.19-.09-.39-.13-.6-.12-.75.08-1.4.56-1.69,1.25Z"/>
  <path d="M39.83,5.44s-.1,0-.15.01c-1.56.2-2.66,1.62-2.46,3.17,0,.09-.01.18-.01.27.01,1.56,1.28,2.81,2.84,2.8.67,0,1.32-.2,1.87-.58l-.22-.41c-.47.34-1.03.53-1.61.53-.05,0-.11,0-.16-.01-1.28-.14-2.22-1.29-2.08-2.57h4.25c.02-.15.02-.3,0-.45,0-1.75-.86-2.75-2.28-2.75ZM37.79,8.24c-.03-1.18.86-2.18,2.04-2.28,1.07,0,1.77.75,1.77,2.28h-3.81Z"/>
  <path d="M45.62,5.5c-.8.03-1.57.29-2.22.77l.26.41c.54-.43,1.2-.68,1.89-.7,1.18,0,1.41.98,1.41,1.89-2.66.3-3.85.92-3.85,2.25,0,.09,0,.19.01.28.11.86.9,1.46,1.75,1.35.79-.06,1.54-.38,2.13-.92l.06.78h.44v-3.81c0-1.23-.48-2.3-1.88-2.3ZM46.96,10.31c-.54.55-1.25.89-2.02.96-.06,0-.12.01-.18,0-.62-.02-1.1-.53-1.08-1.15,0-.95.83-1.52,3.29-1.81v1.99Z"/>
  <path d="M51.25,11.31c-.87,0-1.06-.51-1.06-1.28v-3.87h1.73v-.48h-1.73v-1.73h-.46l-.07,1.73h-.95v.44h.94v3.83c0,1.07.33,1.8,1.52,1.84.33-.03.66-.1.97-.22l-.14-.45c-.23.11-.49.17-.74.19Z"/>
  <path d="M55.99,5.52c-.81.05-1.55.44-2.06,1.06v-3.91h-.55v8.9h.56v-4.5c.72-.69,1.23-1.06,1.95-1.06.96,0,1.36.61,1.36,1.86v3.75h.54v-3.82c0-1.54-.56-2.29-1.8-2.29Z"/>
  <path d="M62.03,5.44c-.05,0-.11,0-.16.02-1.55.2-2.64,1.62-2.43,3.17,0,.08-.01.17-.01.26,0,1.56,1.27,2.81,2.83,2.81.67,0,1.32-.2,1.87-.58l-.22-.41c-.46.34-1.02.53-1.59.53-.06,0-.12,0-.19-.01-1.28-.14-2.2-1.29-2.06-2.57h4.25c.01-.15.01-.3,0-.45,0-1.75-.87-2.75-2.29-2.75ZM59.99,8.24c-.03-1.18.86-2.18,2.04-2.28,1.07,0,1.76.75,1.76,2.28h-3.81Z"/>
  <path d="M66.14,10.62s-.02,0-.03,0c-.29.02-.51.28-.49.57,0,.01,0,.02,0,.03,0,.29.23.52.52.52,0,0,.01,0,.02,0,.29-.01.52-.26.51-.55,0,0,0-.01,0-.02,0-.3-.23-.55-.53-.55Z"/>
</svg>